<?xml version="1.0" encoding="UTF-8" standalone="no"?>
<!-- Generator: Adobe Illustrator 14.0.0, SVG Export Plug-In . SVG Version: 6.00 Build 43363)  -->

<svg
   xmlns:dc="http://purl.org/dc/elements/1.1/"
   xmlns:cc="http://creativecommons.org/ns#"
   xmlns:rdf="http://www.w3.org/1999/02/22-rdf-syntax-ns#"
   xmlns:svg="http://www.w3.org/2000/svg"
   xmlns="http://www.w3.org/2000/svg"
   xmlns:sodipodi="http://sodipodi.sourceforge.net/DTD/sodipodi-0.dtd"
   xmlns:inkscape="http://www.inkscape.org/namespaces/inkscape"
   version="1.1"
   id="svg2"
   inkscape:version="0.48.4 r9939"
   sodipodi:docname="led-lamp-red-on.svg"
   x="0px"
   y="0px"
   width="800px"
   height="600px"
   viewBox="0 0 800 600"
   enable-background="new 0 0 800 600"
   xml:space="preserve"
   inkscape:export-filename="/home/bernhard/data/worklibraries/Modelica_DeviceDrivers/Modelica_DeviceDrivers/Resources/Images/Icons/led-lamp-red-on.png"
   inkscape:export-xdpi="100"
   inkscape:export-ydpi="100"><metadata
     id="metadata23"><rdf:RDF><cc:Work
         rdf:about=""><dc:format>image/svg+xml</dc:format><dc:type
           rdf:resource="http://purl.org/dc/dcmitype/StillImage" /><dc:title></dc:title><cc:license
           rdf:resource="http://creativecommons.org/licenses/publicdomain/" /><dc:description></dc:description><dc:source>https://openclipart.org/detail/248021/red-led-lamp-on</dc:source></cc:Work><cc:License
         rdf:about="http://creativecommons.org/licenses/publicdomain/"><cc:permits
           rdf:resource="http://creativecommons.org/ns#Reproduction" /><cc:permits
           rdf:resource="http://creativecommons.org/ns#Distribution" /><cc:permits
           rdf:resource="http://creativecommons.org/ns#DerivativeWorks" /></cc:License></rdf:RDF></metadata><defs
     id="defs21" /><sodipodi:namedview
     inkscape:document-units="px"
     inkscape:pageopacity="0.0"
     inkscape:window-width="1280"
     inkscape:cy="401.66067"
     inkscape:cx="207.89597"
     showgrid="false"
     inkscape:window-x="0"
     inkscape:zoom="0.43838424"
     inkscape:pageshadow="2"
     bordercolor="#666666"
     inkscape:window-height="752"
     pagecolor="#ffffff"
     inkscape:current-layer="layer1"
     inkscape:window-y="0"
     borderopacity="1.0"
     id="base"
     inkscape:window-maximized="0" /><g
     id="layer1"
     inkscape:groupmode="layer"
     inkscape:label="Layer 1"><path
       id="path2472"
       sodipodi:nodetypes="ccccccccccccccccc"
       inkscape:connector-curvature="0"
       fill="#4D4D4D"
       stroke="#000000"
       stroke-width="1.8332"
       d="   M395.128,328.216l9.512-22.29l-0.088-32.169l16.746-6.413l-49.226-33.283l-0.835-28.762l-18.66-1.151l1.18,40.605l19.948,16.354   l-2.966,14.479l-23.219,16.761l-5.16,26.396l29.878,8.445l1.778,2.911l7.813,213.015l16.303-0.614L395.128,328.216z" /><path
       id="path2474"
       sodipodi:nodetypes="ccccccccccccccc"
       inkscape:connector-curvature="0"
       fill="#4D4D4D"
       stroke="#000000"
       stroke-width="1.8332"
       d="   M458.761,543.794l-7.197-225.687l-1.165-10.973l-15.252-0.403l-2.345-51.578l-49.005-25.669l-1.46-21.124l98.079-4.543   l-1.261,44.063l-11.425,14.725l29.145,41.486l0.418,14.38l-21.896,4.023l1.104,219.939L458.761,543.794z" /><path
       id="path2470"
       sodipodi:nodetypes="cccccscccc"
       inkscape:connector-curvature="0"
       opacity="0.7897"
       fill="#FF0000"
       stroke="#FFFFFF"
       stroke-width="1.8332"
       enable-background="new    "
       d="   M510.539,336.083c0,0-52.69,24.391-192.064,6.427c-1.938-8.41-1.123-37.28-1.123-37.28l12.57-4.458c0,0-1.541-173.41,0.74-188.04   c-2.071-18.734,34.562-63.227,75.188-63.991c54.141-1.015,81.22,49.819,80.268,52.7c6.21,16.22,12.679,196.505,12.679,196.505   l10.856,2.972l0.885,35.16L510.539,336.083z" /><radialGradient
       id="path2991_1_"
       cx="341.9521"
       cy="119.9434"
       r="91.144"
       gradientTransform="matrix(0.0431 1.2342 2.2046 -0.077 127.3611 -352.7568)"
       gradientUnits="userSpaceOnUse"><stop
         offset="0"
         style="stop-color:#FFFFFF"
         id="stop9" /><stop
         offset="1"
         style="stop-color:#FFFFFF;stop-opacity:0"
         id="stop11" /></radialGradient><path
       id="path2991"
       sodipodi:nodetypes="cccccscccc"
       inkscape:connector-curvature="0"
       fill="url(#path2991_1_)"
       d="   M509.336,335.416c0,0-51.707,24.181-188.506,6.316c-1.904-8.344-1.114-36.984-1.114-36.984l12.336-4.42   c0,0-1.566-172.035,0.668-186.545c-2.039-18.586,33.903-62.719,73.774-63.46c53.139-0.99,79.732,49.449,78.797,52.307   c6.101,16.093,12.506,194.955,12.506,194.955l10.655,2.951l0.88,34.883L509.336,335.416z" /><path
       id="path2480"
       sodipodi:nodetypes="cscczcc"
       inkscape:connector-curvature="0"
       opacity="0.5952"
       fill="#CCCCCC"
       fill-opacity="0.6224"
       stroke="#CCCCCC"
       stroke-width="1.8332"
       stroke-linecap="round"
       stroke-linejoin="round"
       enable-background="new    "
       d="   M328.806,303.746c0,0-3.463,0.477-5.044,1.033l-5.036,1.775c0,0,94.322,13.87,191.158-4.184l-1.522-0.513   c-1.743-0.588-5.685-1.552-6.896-1.966l-172.662,3.854H328.806z" /><radialGradient
       id="path3796_1_"
       cx="678.4922"
       cy="157.2773"
       r="96.0474"
       gradientTransform="matrix(-1.3948 1.3422 1.1419 1.2976 1160.7717 -945.002)"
       gradientUnits="userSpaceOnUse"><stop
         offset="0"
         style="stop-color:#FF0000"
         id="stop16" /><stop
         offset="1"
         style="stop-color:#FF0000;stop-opacity:0"
         id="stop18" /></radialGradient></g></svg>