<?xml version="1.0"?>
<svg xmlns:rdf="http://www.w3.org/1999/02/22-rdf-syntax-ns#" xmlns="http://www.w3.org/2000/svg" xmlns:cc="http://creativecommons.org/ns#" xmlns:dc="http://purl.org/dc/elements/1.1/" id="svg4118" viewBox="0 0 129.44 47.188" version="1.1">
  <g id="layer1" transform="translate(-486.71 -505.91)">
    <g id="g3911" transform="translate(414.55 448.54)">
      <rect id="rect3885" rx="13.769" ry="13.769" height="45.667" width="127.92" stroke="#050505" stroke-linecap="square" y="58.134" x="72.92" stroke-width="1.5" fill="#e0e0e0"/>
      <g id="g3887">
        <g id="g3816" transform="translate(80)">
          <path id="rect2987" d="m33.482 64.26h49.18c7.5117 0 14.275 5.7557 11.751 11.765l-4.1657 9.9181c-2.5239 6.0093-4.2393 11.765-11.751 11.765h-40.849c-7.5117 0-8.5039-5.7557-11.028-11.765l-4.1657-9.9181c-2.5239-6.0093 3.5161-11.765 11.028-11.765z" fill="#1a1a1a"/>
          <path id="path3770" d="m34.918 66.879h45.411c11.654 0 11.937 4.6132 10.09 9.5156l-4.4869 11.911c-1.9952 5.2965-4.8892 6.5553-9.45 6.5553h-37.718c-4.1807 0-6.1688-1.0328-7.8813-5.443l-5.057-13.023c-1.8668-4.8077-0.78965-9.5156 9.0918-9.5156z" fill="#b2b2b2"/>
          <path id="path3768" d="m37.331 68.6h41.489c10.33 0 10.416 5.4582 9.2188 8.6291l-3.862 10.226c-1.7292 4.5793-4.7048 5.8513-8.8716 5.8513h-34.46c-3.8196 0-6.128-0.33911-7.9143-4.8964l-4.3822-11.181c-1.6285-4.1548-0.24559-8.6291 8.7823-8.6291z" stroke="#1e3332" fill="#3e4ac4"/>
          <g id="g3803" stroke="#0d1010" stroke-linecap="square" fill="#707070">
            <g id="g3796">
              <path id="path3772" d="m122.09 78.568c0 1.5581-1.2631 2.8212-2.8212 2.8212s-2.8212-1.2631-2.8212-2.8212 1.2631-2.8212 2.8212-2.8212 2.8212 1.2631 2.8212 2.8212z" transform="matrix(1.183 0 0 1.183 -104.16 -16.762)"/>
              <path id="path3774" d="m122.09 78.568c0 1.5581-1.2631 2.8212-2.8212 2.8212s-2.8212-1.2631-2.8212-2.8212 1.2631-2.8212 2.8212-2.8212 2.8212 1.2631 2.8212 2.8212z" transform="matrix(1.183 0 0 1.183 -61.117 -16.762)"/>
              <path id="path3776" d="m122.09 78.568c0 1.5581-1.2631 2.8212-2.8212 2.8212s-2.8212-1.2631-2.8212-2.8212 1.2631-2.8212 2.8212-2.8212 2.8212 1.2631 2.8212 2.8212z" transform="matrix(1.183 0 0 1.183 -71.878 -16.762)"/>
              <path id="path3778" d="m122.09 78.568c0 1.5581-1.2631 2.8212-2.8212 2.8212s-2.8212-1.2631-2.8212-2.8212 1.2631-2.8212 2.8212-2.8212 2.8212 1.2631 2.8212 2.8212z" transform="matrix(1.183 0 0 1.183 -93.401 -16.762)"/>
              <path id="path3780" d="m122.09 78.568c0 1.5581-1.2631 2.8212-2.8212 2.8212s-2.8212-1.2631-2.8212-2.8212 1.2631-2.8212 2.8212-2.8212 2.8212 1.2631 2.8212 2.8212z" transform="matrix(1.183 0 0 1.183 -82.64 -16.762)"/>
            </g>
            <g id="g3790">
              <path id="path3782" d="m122.09 78.568c0 1.5581-1.2631 2.8212-2.8212 2.8212s-2.8212-1.2631-2.8212-2.8212 1.2631-2.8212 2.8212-2.8212 2.8212 1.2631 2.8212 2.8212z" transform="matrix(1.183 0 0 1.183 -66.498 -6.7618)"/>
              <path id="path3784" d="m122.09 78.568c0 1.5581-1.2631 2.8212-2.8212 2.8212s-2.8212-1.2631-2.8212-2.8212 1.2631-2.8212 2.8212-2.8212 2.8212 1.2631 2.8212 2.8212z" transform="matrix(1.183 0 0 1.183 -77.259 -6.7618)"/>
              <path id="path3786" d="m122.09 78.568c0 1.5581-1.2631 2.8212-2.8212 2.8212s-2.8212-1.2631-2.8212-2.8212 1.2631-2.8212 2.8212-2.8212 2.8212 1.2631 2.8212 2.8212z" transform="matrix(1.183 0 0 1.183 -98.782 -6.7618)"/>
              <path id="path3788" d="m122.09 78.568c0 1.5581-1.2631 2.8212-2.8212 2.8212s-2.8212-1.2631-2.8212-2.8212 1.2631-2.8212 2.8212-2.8212 2.8212 1.2631 2.8212 2.8212z" transform="matrix(1.183 0 0 1.183 -88.02 -6.7618)"/>
            </g>
          </g>
        </g>
        <g id="g3837" stroke-linecap="square" transform="translate(-17.795 7.3211)">
          <path id="path3835" d="m191.58 83.472c0 1.4382-1.1659 2.6042-2.6042 2.6042-1.4382 0-2.6042-1.1659-2.6042-2.6042 0-1.4382 1.1659-2.6042 2.6042-2.6042 1.4382 0 2.6042 1.1659 2.6042 2.6042z" transform="matrix(3.2716 0 0 3.2716 -413.82 -199.42)" stroke="#090909" stroke-width=".45849" fill="#818181"/>
          <path id="path3833" d="m191.58 83.472c0 1.4382-1.1659 2.6042-2.6042 2.6042-1.4382 0-2.6042-1.1659-2.6042-2.6042 0-1.4382 1.1659-2.6042 2.6042-2.6042 1.4382 0 2.6042 1.1659 2.6042 2.6042z" transform="matrix(1.3716 0 0 1.3716 -54.77 -40.826)" stroke="#181818" stroke-width=".72908" fill="#2b2b2b"/>
        </g>
        <g id="g3879" stroke-linecap="square" transform="translate(-114.84 7.3211)">
          <path id="path3881" d="m191.58 83.472c0 1.4382-1.1659 2.6042-2.6042 2.6042-1.4382 0-2.6042-1.1659-2.6042-2.6042 0-1.4382 1.1659-2.6042 2.6042-2.6042 1.4382 0 2.6042 1.1659 2.6042 2.6042z" transform="matrix(3.2716 0 0 3.2716 -413.82 -199.42)" stroke="#090909" stroke-width=".45849" fill="#818181"/>
          <path id="path3883" d="m191.58 83.472c0 1.4382-1.1659 2.6042-2.6042 2.6042-1.4382 0-2.6042-1.1659-2.6042-2.6042 0-1.4382 1.1659-2.6042 2.6042-2.6042 1.4382 0 2.6042 1.1659 2.6042 2.6042z" transform="matrix(1.3716 0 0 1.3716 -54.77 -40.826)" stroke="#181818" stroke-width=".72908" fill="#2b2b2b"/>
        </g>
      </g>
    </g>
  </g>
  <metadata>
    <rdf:RDF>
      <cc:Work>
        <dc:format>image/svg+xml</dc:format>
        <dc:type rdf:resource="http://purl.org/dc/dcmitype/StillImage"/>
        <cc:license rdf:resource="http://creativecommons.org/licenses/publicdomain/"/>
        <dc:publisher>
          <cc:Agent rdf:about="http://openclipart.org/">
            <dc:title>Openclipart</dc:title>
          </cc:Agent>
        </dc:publisher>
      </cc:Work>
      <cc:License rdf:about="http://creativecommons.org/licenses/publicdomain/">
        <cc:permits rdf:resource="http://creativecommons.org/ns#Reproduction"/>
        <cc:permits rdf:resource="http://creativecommons.org/ns#Distribution"/>
        <cc:permits rdf:resource="http://creativecommons.org/ns#DerivativeWorks"/>
      </cc:License>
    </rdf:RDF>
  </metadata>
</svg>
